<?xml version="1.0" encoding="utf-8"?>
<!-- Generator: Adobe Illustrator 23.0.3, SVG Export Plug-In . SVG Version: 6.00 Build 0)  -->
<svg version="1.1" id="Layer_1" xmlns="http://www.w3.org/2000/svg" xmlns:xlink="http://www.w3.org/1999/xlink" x="0px" y="0px"
	 viewBox="0 0 8192 8160.3" style="enable-background:new 0 0 8192 8160.3;" xml:space="preserve">
<style type="text/css">
	.st0{fill:url(#SVGID_1_);stroke:#000000;stroke-miterlimit:10;}
	.st1{opacity:0.25;}
	.st2{fill:#FFFFFF;}
</style>
<linearGradient id="SVGID_1_" gradientUnits="userSpaceOnUse" x1="0" y1="4079.8501" x2="8192" y2="4079.8501" gradientTransform="matrix(1 0 0 -1 0 8160)">
	<stop  offset="0.4901" style="stop-color:#E6EDF5"/>
	<stop  offset="1" style="stop-color:#C0D1E5"/>
</linearGradient>
<rect class="st0" width="8192" height="8160.3"/>
<g class="st1">
	<g>
		<g>
			<circle class="st2" cx="4105.02" cy="3937.56" r="12.25"/>
			<circle class="st2" cx="4086.98" cy="4222.74" r="12.25"/>
		</g>
		<g>
			<circle class="st2" cx="4055.71" cy="3943.07" r="12.25"/>
			<circle class="st2" cx="4136.29" cy="4217.23" r="12.25"/>
		</g>
		<g>
			<circle class="st2" cx="4011.25" cy="3965.12" r="12.25"/>
			<circle class="st2" cx="4180.75" cy="4195.17" r="12.25"/>
		</g>
		<g>
			<circle class="st2" cx="3977.03" cy="4001.04" r="12.25"/>
			<circle class="st2" cx="4214.97" cy="4159.25" r="12.25"/>
		</g>
		<g>
			<circle class="st2" cx="3957.14" cy="4046.5" r="12.25"/>
			<circle class="st2" cx="4234.85" cy="4113.79" r="12.25"/>
		</g>
		<g>
			<circle class="st2" cx="3954.01" cy="4096.03" r="12.25"/>
			<circle class="st2" cx="4237.99" cy="4064.27" r="12.25"/>
		</g>
		<g>
			<circle class="st2" cx="3968" cy="4143.63" r="12.25"/>
			<circle class="st2" cx="4224" cy="4016.66" r="12.25"/>
		</g>
		<g>
			<circle class="st2" cx="3997.44" cy="4183.58" r="12.25"/>
			<circle class="st2" cx="4194.56" cy="3976.72" r="12.25"/>
		</g>
		<g>
			<circle class="st2" cx="4038.76" cy="4211.06" r="12.25"/>
			<circle class="st2" cx="4153.24" cy="3949.24" r="12.25"/>
		</g>
	</g>
	<g>
		<g>
			<circle class="st2" cx="4073.77" cy="3881.36" r="17.14"/>
			<circle class="st2" cx="4118.23" cy="4278.94" r="17.14"/>
		</g>
		<g>
			<circle class="st2" cx="4007.12" cy="3900.96" r="17.14"/>
			<circle class="st2" cx="4184.88" cy="4259.34" r="17.14"/>
		</g>
		<g>
			<circle class="st2" cx="3951.19" cy="3942.16" r="17.14"/>
			<circle class="st2" cx="4240.8" cy="4218.14" r="17.14"/>
		</g>
		<g>
			<circle class="st2" cx="3912.73" cy="4000.01" r="17.14"/>
			<circle class="st2" cx="4279.27" cy="4160.29" r="17.14"/>
		</g>
		<g>
			<circle class="st2" cx="3896.37" cy="4067.51" r="17.14"/>
			<circle class="st2" cx="4295.63" cy="4092.77" r="17.14"/>
		</g>
		<g>
			<circle class="st2" cx="3904.09" cy="4136.56" r="17.14"/>
			<circle class="st2" cx="4287.91" cy="4023.74" r="17.14"/>
		</g>
		<g>
			<circle class="st2" cx="3934.95" cy="4198.79" r="17.14"/>
			<circle class="st2" cx="4257.04" cy="3961.51" r="17.14"/>
		</g>
		<g>
			<circle class="st2" cx="3985.25" cy="4246.71" r="17.14"/>
			<circle class="st2" cx="4206.75" cy="3913.58" r="17.14"/>
		</g>
		<g>
			<circle class="st2" cx="4048.89" cy="4274.55" r="17.14"/>
			<circle class="st2" cx="4143.1" cy="3885.75" r="17.14"/>
		</g>
	</g>
	<g>
		<g>
			<circle class="st2" cx="4112.24" cy="3823.49" r="22.04"/>
			
				<ellipse transform="matrix(0.3162 -0.9487 0.9487 0.3162 -1324.6094 6835.8398)" class="st2" cx="4079.89" cy="4336.83" rx="22.04" ry="22.04"/>
		</g>
		<g>
			<circle class="st2" cx="4023.48" cy="3833.41" r="22.04"/>
			<circle class="st2" cx="4168.52" cy="4326.88" r="22.04"/>
		</g>
		<g>
			<circle class="st2" cx="3943.45" cy="3873.1" r="22.04"/>
			<circle class="st2" cx="4248.54" cy="4287.2" r="22.04"/>
		</g>
		<g>
			<circle class="st2" cx="3881.84" cy="3937.75" r="22.04"/>
			<circle class="st2" cx="4310.15" cy="4222.54" r="22.04"/>
		</g>
		<g>
			<circle class="st2" cx="3846.05" cy="4019.58" r="22.04"/>
			<circle class="st2" cx="4345.94" cy="4140.7" r="22.04"/>
		</g>
		<g>
			<circle class="st2" cx="3840.41" cy="4108.73" r="22.04"/>
			<circle class="st2" cx="4351.58" cy="4051.57" r="22.04"/>
		</g>
		<g>
			<circle class="st2" cx="3865.6" cy="4194.41" r="22.04"/>
			<circle class="st2" cx="4326.39" cy="3965.88" r="22.04"/>
		</g>
		<g>
			<circle class="st2" cx="3918.58" cy="4266.33" r="22.04"/>
			<circle class="st2" cx="4273.42" cy="3893.97" r="22.04"/>
		</g>
		<g>
			<circle class="st2" cx="3992.96" cy="4315.78" r="22.04"/>
			<circle class="st2" cx="4199.04" cy="3844.52" r="22.04"/>
		</g>
	</g>
	<g>
		<g>
			<circle class="st2" cx="4055.98" cy="3722.34" r="30.86"/>
			<circle class="st2" cx="4136.01" cy="4437.96" r="30.86"/>
		</g>
		<g>
			<circle class="st2" cx="3936.02" cy="3757.59" r="30.86"/>
			<circle class="st2" cx="4255.97" cy="4402.7" r="30.86"/>
		</g>
		<g>
			<circle class="st2" cx="3835.35" cy="3831.76" r="30.86"/>
			<circle class="st2" cx="4356.65" cy="4328.53" r="30.86"/>
		</g>
		<g>
			<circle class="st2" cx="3766.12" cy="3935.89" r="30.86"/>
			<circle class="st2" cx="4425.88" cy="4224.4" r="30.86"/>
		</g>
		<g>
			<circle class="st2" cx="3736.68" cy="4057.41" r="30.86"/>
			<circle class="st2" cx="4455.33" cy="4102.88" r="30.86"/>
		</g>
		<g>
			<circle class="st2" cx="3750.56" cy="4181.69" r="30.86"/>
			<circle class="st2" cx="4441.43" cy="3978.61" r="30.86"/>
		</g>
		<g>
			<circle class="st2" cx="3806.12" cy="4293.7" r="30.86"/>
			<circle class="st2" cx="4385.87" cy="3866.59" r="30.86"/>
		</g>
		<g>
			<circle class="st2" cx="3896.65" cy="4379.96" r="30.86"/>
			<circle class="st2" cx="4295.35" cy="3780.32" r="30.86"/>
		</g>
		<g>
			<circle class="st2" cx="4011.22" cy="4430.07" r="30.86"/>
			<circle class="st2" cx="4180.78" cy="3730.22" r="30.86"/>
		</g>
	</g>
	<g>
		<g>
			<circle class="st2" cx="4125.22" cy="3618.15" r="39.67"/>
			<circle class="st2" cx="4066.77" cy="4542.14" r="39.67"/>
		</g>
		<g>
			<circle class="st2" cx="3965.45" cy="3636.02" r="39.67"/>
			<circle class="st2" cx="4226.54" cy="4524.28" r="39.67"/>
		</g>
		<g>
			<circle class="st2" cx="3821.42" cy="3707.45" r="39.67"/>
			<circle class="st2" cx="4370.57" cy="4452.84" r="39.67"/>
		</g>
		<g>
			<circle class="st2" cx="3710.51" cy="3823.84" r="39.67"/>
			<circle class="st2" cx="4481.48" cy="4336.46" r="39.67"/>
		</g>
		<g>
			<ellipse class="st2" cx="3646.24" cy="3971.16" rx="39.67" ry="39.67"/>
			<circle class="st2" cx="4545.89" cy="4189.16" r="39.67"/>
		</g>
		<g>
			<ellipse class="st2" cx="3636.09" cy="4131.61" rx="39.67" ry="39.67"/>
			<circle class="st2" cx="4556.04" cy="4028.7" r="39.67"/>
		</g>
		<g>
			<circle class="st2" cx="3681.29" cy="4285.83" r="39.67"/>
			<circle class="st2" cx="4510.71" cy="3874.47" r="39.67"/>
		</g>
		<g>
			<circle class="st2" cx="3776.65" cy="4415.27" r="39.67"/>
			<circle class="st2" cx="4415.35" cy="3745.02" r="39.67"/>
		</g>
		<g>
			<circle class="st2" cx="3910.53" cy="4504.28" r="39.67"/>
			<circle class="st2" cx="4281.47" cy="3656.01" r="39.67"/>
		</g>
	</g>
	<g>
		<g>
			<circle class="st2" cx="4023.98" cy="3436.08" r="55.54"/>
			<circle class="st2" cx="4168.02" cy="4724.21" r="55.54"/>
		</g>
		<g>
			<circle class="st2" cx="3808.04" cy="3499.55" r="55.54"/>
			<circle class="st2" cx="4383.95" cy="4660.74" r="55.54"/>
		</g>
		<g>
			<circle class="st2" cx="3626.83" cy="3633.05" r="55.54"/>
			<circle class="st2" cx="4565.16" cy="4527.24" r="55.54"/>
		</g>
		<g>
			<circle class="st2" cx="3502.21" cy="3820.48" r="55.54"/>
			<circle class="st2" cx="4689.78" cy="4339.82" r="55.54"/>
		</g>
		<g>
			<circle class="st2" cx="3449.21" cy="4039.23" r="55.54"/>
			<circle class="st2" cx="4742.79" cy="4121.06" r="55.54"/>
		</g>
		<g>
			<circle class="st2" cx="3474.22" cy="4262.91" r="55.54"/>
			<circle class="st2" cx="4717.77" cy="3897.38" r="55.54"/>
		</g>
		<g>
			<circle class="st2" cx="3574.23" cy="4464.55" r="55.54"/>
			<circle class="st2" cx="4617.77" cy="3695.75" r="55.54"/>
		</g>
		<g>
			<circle class="st2" cx="3737.17" cy="4619.83" r="55.54"/>
			<circle class="st2" cx="4454.83" cy="3540.47" r="55.54"/>
		</g>
		<g>
			<circle class="st2" cx="3943.39" cy="4710.01" r="55.54"/>
			<circle class="st2" cx="4248.61" cy="3450.29" r="55.54"/>
		</g>
	</g>
	<g>
		<g>
			
				<ellipse transform="matrix(0.3162 -0.9487 0.9487 0.3162 -245.1225 6157.0376)" class="st2" cx="4148.72" cy="3248.57" rx="71.41" ry="71.41"/>
			<circle class="st2" cx="4043.39" cy="4911.73" r="71.41"/>
		</g>
		<g>
			<circle class="st2" cx="3861.01" cy="3280.72" r="71.41"/>
			<circle class="st2" cx="4330.98" cy="4879.57" r="71.41"/>
		</g>
		<g>
			<circle class="st2" cx="3601.77" cy="3409.3" r="71.41"/>
			<circle class="st2" cx="4590.23" cy="4751" r="71.41"/>
		</g>
		<g>
			<circle class="st2" cx="3402.13" cy="3618.79" r="71.41"/>
			<circle class="st2" cx="4789.87" cy="4541.5" r="71.41"/>
		</g>
		<g>
			<circle class="st2" cx="3286.18" cy="3883.94" r="71.41"/>
			<circle class="st2" cx="4905.81" cy="4276.36" r="71.41"/>
		</g>
		<g>
			<circle class="st2" cx="3267.91" cy="4172.74" r="71.41"/>
			<circle class="st2" cx="4924.09" cy="3987.55" r="71.41"/>
		</g>
		<g>
			<circle class="st2" cx="3349.52" cy="4450.38" r="71.41"/>
			<circle class="st2" cx="4842.48" cy="3709.92" r="71.41"/>
		</g>
		<g>
			<circle class="st2" cx="3521.17" cy="4683.36" r="71.41"/>
			<circle class="st2" cx="4670.83" cy="3476.93" r="71.41"/>
		</g>
		<g>
			<circle class="st2" cx="3762.15" cy="4843.59" r="71.41"/>
			<circle class="st2" cx="4429.85" cy="3316.71" r="71.41"/>
		</g>
	</g>
	<g>
		<g>
			<circle class="st2" cx="3966.36" cy="2920.83" r="99.97"/>
			<circle class="st2" cx="4225.63" cy="5239.47" r="99.97"/>
		</g>
		<g>
			<ellipse class="st2" cx="3577.78" cy="3035.08" rx="99.97" ry="99.97"/>
			<circle class="st2" cx="4614.32" cy="5125.21" r="99.97"/>
		</g>
		<g>
			<circle class="st2" cx="3251.5" cy="3275.38" r="99.97"/>
			<circle class="st2" cx="4940.5" cy="4884.91" r="99.97"/>
		</g>
		<g>
			<circle class="st2" cx="3027.18" cy="3612.76" r="99.97"/>
			<circle class="st2" cx="5164.82" cy="4547.54" r="99.97"/>
		</g>
		<g>
			<circle class="st2" cx="2931.78" cy="4006.49" r="99.97"/>
			<circle class="st2" cx="5260.22" cy="4153.79" r="99.97"/>
		</g>
		<g>
			<circle class="st2" cx="2976.8" cy="4409.12" r="99.97"/>
			<circle class="st2" cx="5215.2" cy="3751.18" r="99.97"/>
		</g>
		<g>
			<circle class="st2" cx="3156.82" cy="4772.07" r="99.97"/>
			<circle class="st2" cx="5035.18" cy="3388.23" r="99.97"/>
		</g>
		<g>
			<circle class="st2" cx="3450.11" cy="5051.56" r="99.97"/>
			<circle class="st2" cx="4741.9" cy="3108.73" r="99.97"/>
		</g>
		<g>
			<circle class="st2" cx="3821.3" cy="5213.89" r="99.97"/>
			<circle class="st2" cx="4370.69" cy="2946.41" r="99.97"/>
		</g>
	</g>
	<g>
		<g>
			<circle class="st2" cx="4190.69" cy="2583.3" r="128.54"/>
			
				<ellipse transform="matrix(0.7071 -0.7071 0.7071 0.7071 -2771.5925 4462.7627)" class="st2" cx="4001.23" cy="5576.99" rx="128.54" ry="128.54"/>
		</g>
		<g>
			<ellipse class="st2" cx="3672.99" cy="2641.19" rx="128.54" ry="128.54"/>
			<circle class="st2" cx="4518.97" cy="5519.12" r="128.54"/>
		</g>
		<g>
			<circle class="st2" cx="3206.38" cy="2872.62" r="128.54"/>
			<circle class="st2" cx="4985.61" cy="5287.68" r="128.54"/>
		</g>
		<g>
			<circle class="st2" cx="2847.04" cy="3249.72" r="128.54"/>
			<circle class="st2" cx="5344.96" cy="4910.58" r="128.54"/>
		</g>
		<g>
			<circle class="st2" cx="2638.33" cy="3726.96" r="128.54"/>
			<circle class="st2" cx="5553.67" cy="4433.33" r="128.54"/>
		</g>
		<g>
			<circle class="st2" cx="2605.44" cy="4246.82" r="128.54"/>
			<circle class="st2" cx="5586.56" cy="3913.48" r="128.54"/>
		</g>
		<g>
			<circle class="st2" cx="2752.34" cy="4746.57" r="128.54"/>
			<circle class="st2" cx="5439.66" cy="3413.73" r="128.54"/>
		</g>
		<g>
			<circle class="st2" cx="3061.3" cy="5165.94" r="128.54"/>
			<circle class="st2" cx="5130.7" cy="2994.36" r="128.54"/>
		</g>
		<g>
			<circle class="st2" cx="3495.06" cy="5454.34" r="128.54"/>
			<circle class="st2" cx="4696.93" cy="2705.96" r="128.54"/>
		</g>
	</g>
	<g>
		<g>
			<circle class="st2" cx="3862.66" cy="1993.37" r="179.96"/>
			<circle class="st2" cx="4329.33" cy="6166.93" r="179.96"/>
		</g>
		<g>
			<circle class="st2" cx="3163.01" cy="2199.02" r="179.96"/>
			<circle class="st2" cx="5028.98" cy="5961.27" r="179.96"/>
		</g>
		<g>
			<circle class="st2" cx="2575.9" cy="2631.57" r="179.96"/>
			<circle class="st2" cx="5616.1" cy="5528.73" r="179.96"/>
		</g>
		<g>
			<circle class="st2" cx="2172.12" cy="3238.83" r="179.96"/>
			<circle class="st2" cx="6019.87" cy="4921.46" r="179.96"/>
		</g>
		<g>
			
				<ellipse transform="matrix(0.7071 -0.7071 0.7071 0.7071 -2205.4495 2570.6875)" class="st2" cx="2000.37" cy="3947.56" rx="179.96" ry="179.96"/>
			<circle class="st2" cx="6191.59" cy="4212.72" r="179.96"/>
		</g>
		<g>
			<circle class="st2" cx="2081.44" cy="4672.3" r="179.96"/>
			<circle class="st2" cx="6110.55" cy="3487.99" r="179.96"/>
		</g>
		<g>
			<circle class="st2" cx="2405.46" cy="5325.61" r="179.96"/>
			<circle class="st2" cx="5786.53" cy="2834.68" r="179.96"/>
		</g>
		<g>
			<circle class="st2" cx="2933.39" cy="5828.7" r="179.96"/>
			<circle class="st2" cx="5258.61" cy="2331.6" r="179.96"/>
		</g>
		<g>
			<circle class="st2" cx="3601.54" cy="6120.89" r="179.96"/>
			<circle class="st2" cx="4590.46" cy="2039.41" r="179.96"/>
		</g>
	</g>
	<g>
		<g>
			<circle class="st2" cx="4266.45" cy="1385.82" r="231.37"/>
			<circle class="st2" cx="3925.55" cy="6774.48" r="231.37"/>
		</g>
		<g>
			<circle class="st2" cx="3334.65" cy="1490.01" r="231.37"/>
			<circle class="st2" cx="4857.34" cy="6670.29" r="231.37"/>
		</g>
		<g>
			<circle class="st2" cx="2494.69" cy="1906.6" r="231.37"/>
			<circle class="st2" cx="5697.31" cy="6253.69" r="231.37"/>
		</g>
		<g>
			<circle class="st2" cx="1847.86" cy="2585.37" r="231.37"/>
			<circle class="st2" cx="6344.13" cy="5574.93" r="231.37"/>
		</g>
		<g>
			<circle class="st2" cx="1472.19" cy="3444.42" r="231.37"/>
			<circle class="st2" cx="6719.8" cy="4715.87" r="231.37"/>
		</g>
		<g>
			<circle class="st2" cx="1413" cy="4380.15" r="231.37"/>
			<circle class="st2" cx="6778.99" cy="3780.14" r="231.37"/>
		</g>
		<g>
			<circle class="st2" cx="1677.41" cy="5279.7" r="231.37"/>
			<circle class="st2" cx="6514.58" cy="2880.6" r="231.37"/>
		</g>
		<g>
			
				<ellipse transform="matrix(0.7071 -0.7071 0.7071 0.7071 -3612.8877 3346.7856)" class="st2" cx="2233.48" cy="6034.53" rx="231.37" ry="231.37"/>
			<circle class="st2" cx="5958.46" cy="2125.74" r="231.37"/>
		</g>
		<g>
			<circle class="st2" cx="3014.31" cy="6553.69" r="231.37"/>
			<circle class="st2" cx="5177.69" cy="1606.6" r="231.37"/>
		</g>
	</g>
	<g>
		<g>
			<circle class="st2" cx="3675.99" cy="323.94" r="323.92"/>
			<circle class="st2" cx="4516.01" cy="7836.34" r="323.92"/>
		</g>
		<g>
			<circle class="st2" cx="2416.62" cy="694.13" r="323.92"/>
			<circle class="st2" cx="5775.37" cy="7466.17" r="323.92"/>
		</g>
		<g>
			<circle class="st2" cx="1359.81" cy="1472.71" r="323.92"/>
			<circle class="st2" cx="6832.18" cy="6687.58" r="323.92"/>
		</g>
		<g>
			<circle class="st2" cx="633.03" cy="2565.78" r="323.92"/>
			<ellipse class="st2" cx="7558.88" cy="5594.52" rx="323.92" ry="323.92"/>
		</g>
		<g>
			<circle class="st2" cx="323.93" cy="3841.51" r="323.92"/>
			<circle class="st2" cx="7868.06" cy="4318.78" r="323.92"/>
		</g>
		<g>
			<circle class="st2" cx="469.8" cy="5146.03" r="323.92"/>
			<circle class="st2" cx="7722.2" cy="3014.27" r="323.92"/>
		</g>
		<g>
			<circle class="st2" cx="1053.03" cy="6321.98" r="323.92"/>
			<ellipse class="st2" cx="7138.89" cy="1838.35" rx="323.92" ry="323.92"/>
		</g>
		<g>
			<circle class="st2" cx="2003.3" cy="7227.54" r="323.92"/>
			<circle class="st2" cx="6188.7" cy="932.76" r="323.92"/>
		</g>
		<g>
			<circle class="st2" cx="3205.98" cy="7753.47" r="323.92"/>
			<circle class="st2" cx="4986.01" cy="406.82" r="323.92"/>
		</g>
	</g>
</g>
</svg>
