<svg id="Layer_1" data-name="Layer 1" xmlns="http://www.w3.org/2000/svg" viewBox="0 0 131.74 22.4"><defs><style>.cls-1{fill:#4b72af;}.cls-2{fill:#4f4f4f;}</style></defs><title>SalvonaUBlue</title><path class="cls-1" d="M21.92,84.8H15.19v2.06h6.37a3.08,3.08,0,0,1,2,.48,2.5,2.5,0,0,1,.52,1.83v1.34a2.45,2.45,0,0,1-.53,1.83,3.1,3.1,0,0,1-2,.49H15.21a3.17,3.17,0,0,1-2.05-.49,2.41,2.41,0,0,1-.54-1.83v-.27l2.13-.4V91h7.19V88.76H15.61a3.08,3.08,0,0,1-2-.49A2.47,2.47,0,0,1,13,86.45v-1.1a2.43,2.43,0,0,1,.53-1.81,3.08,3.08,0,0,1,2-.49h5.8a3.25,3.25,0,0,1,2,.46A2.14,2.14,0,0,1,24,85.17v.24l-2.07.44Z" transform="translate(-12.62 -77.37)"/><path class="cls-1" d="M31,88.9h4.49l-2.29-4.08Zm-4.63,3.93,5.81-9.78h2.29l5.89,9.78H37.64l-1.23-2.15H29.94l-1.23,2.15Z" transform="translate(-12.62 -77.37)"/><polygon class="cls-1" points="30.13 15.46 30.13 5.67 32.53 5.67 32.53 13.63 40.2 13.63 40.2 15.46 30.13 15.46"/><polygon class="cls-1" points="46.87 15.46 41.22 5.65 43.21 5.65 47.6 13.54 51.81 5.65 53.64 5.65 48.28 15.46 46.87 15.46"/><path class="cls-1" d="M70.66,91.35h8.19V84.48H70.66Zm-1.85-6a2.55,2.55,0,0,1,.5-1.83,2.76,2.76,0,0,1,1.9-.5h7.08a2.74,2.74,0,0,1,1.9.5,2.5,2.5,0,0,1,.51,1.83v5.16a2.55,2.55,0,0,1-.5,1.83,2.81,2.81,0,0,1-1.91.49H71.21a2.8,2.8,0,0,1-1.91-.48,2.58,2.58,0,0,1-.49-1.84Z" transform="translate(-12.62 -77.37)"/><path class="cls-1" d="M86.57,85c0,.28.08.57.1.87s0,.59,0,.88v6.09H85V83h1.41l7.2,6.41a5.66,5.66,0,0,1,.6.6,6.8,6.8,0,0,1,.57.74c0-.29-.09-.59-.12-.89s0-.62,0-.94V83h1.71v9.81H95.06l-7.34-6.5c-.25-.24-.47-.47-.66-.68a7,7,0,0,1-.49-.66" transform="translate(-12.62 -77.37)"/><path class="cls-1" d="M103.15,89.12h5.2l-2.6-4.66Zm-3.89,3.71L104.93,83h1.7l5.8,9.81h-2l-1.28-2.3h-6.77l-1.25,2.3Z" transform="translate(-12.62 -77.37)"/><path class="cls-1" d="M135.25,94.32a6.65,6.65,0,0,0,.32-9.06.78.78,0,0,1-.21.61.75.75,0,0,1-1.06-1.06.78.78,0,0,1,.61-.21,6.65,6.65,0,0,0-10.63,7.22,2.51,2.51,0,0,1,.35-.44,2.94,2.94,0,0,1,4.16,4.15,2.48,2.48,0,0,1-.44.36A6.65,6.65,0,0,0,135.25,94.32ZM134,91.65a.7.7,0,0,1,0,1,.69.69,0,0,1-1,0,.7.7,0,1,1,1-1Zm2.33-4.32a.7.7,0,0,1-1,1,.69.69,0,0,1,0-1A.7.7,0,0,1,136.28,87.33Zm-2.56-.88a.75.75,0,1,1-1.06,0A.75.75,0,0,1,133.72,86.45Zm-.92-2.6a.7.7,0,0,1,0,1,.69.69,0,0,1-1,0,.7.7,0,0,1,1-1Zm-4.24,2.41a.7.7,0,0,1,0,1,.69.69,0,0,1-1,0,.7.7,0,0,1,1-1Zm-3.49,3.42a1,1,0,0,1,0-1.42,1,1,0,0,1,1.42,0,1,1,0,0,1-1.42,1.42Zm5-4.1a.71.71,0,0,1,1,1,.71.71,0,0,1-1-1Zm-1.89,4.5a1,1,0,0,1,0-1.42,1,1,0,0,1,1.42,1.42A1,1,0,0,1,128.19,90.08Zm2.83-2a.75.75,0,1,1,0,1.06A.75.75,0,0,1,131,88.09ZM130.09,92a1,1,0,1,1,1.42,0A1,1,0,0,1,130.09,92Zm3.47-2.92a.69.69,0,0,1,1,0,.7.7,0,1,1-1,0Zm-3.09,6a1,1,0,0,1,0-1.42,1,1,0,0,1,1.42,0,1,1,0,1,1-1.42,1.42Z" transform="translate(-12.62 -77.37)"/><path class="cls-2" d="M144.36,77.37h-9.1v1h1.48A2.62,2.62,0,0,1,139.36,81v8.83h0a9,9,0,1,1-17.94,0h0V78.36h3.94v-1H112.84v1h4V89.81h0c0,5.5,5.27,10,11.78,10h1.82a10,10,0,0,0,10-10h0V81A2.62,2.62,0,0,1,143,78.36h1.39Z" transform="translate(-12.62 -77.37)"/></svg>