<?xml version="1.0" encoding="utf-8"?>
<!-- Generator: Adobe Illustrator 24.0.0, SVG Export Plug-In . SVG Version: 6.00 Build 0)  -->
<svg version="1.1" id="Layer_1" xmlns="http://www.w3.org/2000/svg" xmlns:xlink="http://www.w3.org/1999/xlink" x="0px" y="0px"
	 viewBox="0 0 143.49 43.07" style="enable-background:new 0 0 143.49 43.07;" xml:space="preserve">
<style type="text/css">
	.st0{fill:#2A72AE;}
</style>
<g>
	<g>
		<path class="st0" d="M142.26,0.65h0.09c0.12,0,0.2,0.01,0.23,0.01c0.03,0.01,0.06,0.03,0.07,0.05c0.02,0.02,0.03,0.05,0.03,0.08
			s-0.01,0.06-0.03,0.08c-0.02,0.02-0.04,0.04-0.07,0.05c-0.03,0.01-0.11,0.01-0.23,0.01h-0.09V0.65z M142.26,1.54V1.11h0.06
			c0.06,0,0.11,0.01,0.15,0.04s0.09,0.1,0.15,0.22l0.09,0.17h0.27l-0.13-0.22c-0.05-0.08-0.07-0.12-0.08-0.13
			c-0.03-0.04-0.05-0.07-0.07-0.08s-0.04-0.03-0.08-0.04c0.09-0.01,0.16-0.05,0.21-0.1c0.05-0.06,0.08-0.12,0.08-0.2
			c0-0.06-0.01-0.11-0.04-0.15c-0.03-0.05-0.06-0.08-0.1-0.1c-0.04-0.02-0.1-0.04-0.17-0.04c-0.03,0-0.14,0-0.34,0h-0.22v1.07
			L142.26,1.54L142.26,1.54z M142.9,0.3c0.13,0.07,0.23,0.17,0.3,0.3s0.11,0.27,0.11,0.41c0,0.14-0.04,0.27-0.11,0.4
			c-0.07,0.13-0.17,0.23-0.3,0.3c-0.13,0.07-0.26,0.11-0.4,0.11s-0.27-0.04-0.4-0.11c-0.13-0.07-0.23-0.17-0.3-0.3
			s-0.11-0.26-0.11-0.4c0-0.14,0.04-0.28,0.11-0.41s0.17-0.23,0.3-0.3c0.13-0.07,0.26-0.1,0.4-0.1S142.77,0.23,142.9,0.3 M142,0.13
			c-0.16,0.09-0.28,0.21-0.37,0.37c-0.09,0.16-0.14,0.33-0.14,0.5s0.04,0.34,0.13,0.5c0.09,0.16,0.21,0.28,0.37,0.37
			c0.16,0.09,0.33,0.13,0.5,0.13s0.34-0.04,0.5-0.13s0.28-0.21,0.37-0.37s0.13-0.33,0.13-0.5c0-0.18-0.04-0.34-0.14-0.5
			c-0.09-0.16-0.21-0.28-0.37-0.37c-0.16-0.09-0.32-0.13-0.5-0.13S142.16,0.05,142,0.13"/>
	</g>
	<g>
		<g>
			<g>
				<path class="st0" d="M46.33,13.08H39.6v2.07h6.37c1,0,1.68,0.16,2.02,0.48c0.35,0.32,0.52,0.93,0.52,1.82v1.34
					c0,0.9-0.18,1.51-0.53,1.83s-1.02,0.49-2.01,0.49h-6.35c-1.01,0-1.69-0.16-2.05-0.49c-0.36-0.32-0.54-0.93-0.54-1.83v-0.27
					l2.12-0.4v1.15h7.19v-2.24H40c-1,0-1.68-0.16-2.03-0.49s-0.53-0.94-0.53-1.82v-1.1c0-0.88,0.18-1.48,0.53-1.81
					S39,11.32,40,11.32h5.8c0.99,0,1.66,0.16,2.03,0.47c0.36,0.31,0.55,0.86,0.55,1.66v0.24l-2.07,0.44v-1.05H46.33z"/>
			</g>
			<g>
				<path class="st0" d="M55.37,17.18h4.48l-2.28-4.08L55.37,17.18z M50.74,21.11l5.8-9.78h2.29l5.89,9.78h-2.68l-1.23-2.15h-6.47
					l-1.23,2.15H50.74z"/>
			</g>
			<g>
				<polygon class="st0" points="67.17,21.11 67.17,11.33 69.57,11.33 69.57,19.28 77.24,19.28 77.24,21.11 				"/>
			</g>
			<g>
				<polygon class="st0" points="83.9,21.11 78.26,11.31 80.24,11.31 84.64,19.19 88.85,11.31 90.68,11.31 85.32,21.11 				"/>
			</g>
			<g>
				<path class="st0" d="M95.07,19.63h8.19v-6.87h-8.19V19.63z M93.22,13.64c0-0.9,0.17-1.51,0.51-1.83
					c0.34-0.33,0.97-0.49,1.9-0.49h7.08c0.93,0,1.56,0.16,1.9,0.49c0.34,0.33,0.51,0.94,0.51,1.83v5.16c0,0.9-0.17,1.51-0.5,1.83
					s-0.97,0.49-1.9,0.49h-7.08c-0.94,0-1.58-0.16-1.91-0.48s-0.5-0.93-0.5-1.84v-5.16H93.22z"/>
			</g>
			<g>
				<path class="st0" d="M110.98,13.27c0.04,0.29,0.08,0.58,0.1,0.87s0.03,0.59,0.03,0.88v6.09h-1.71v-9.8h1.41l7.19,6.4
					c0.21,0.18,0.41,0.38,0.6,0.6c0.19,0.22,0.38,0.47,0.57,0.74c-0.05-0.29-0.09-0.59-0.12-0.89c-0.03-0.3-0.04-0.61-0.04-0.94
					V11.3h1.71v9.8h-1.27l-7.34-6.49c-0.26-0.24-0.48-0.47-0.66-0.68C111.29,13.72,111.13,13.5,110.98,13.27"/>
			</g>
			<g>
				<path class="st0" d="M127.56,17.41h5.21l-2.61-4.66L127.56,17.41z M123.68,21.11l5.67-9.8h1.69l5.8,9.8h-2.01l-1.28-2.29h-6.78
					l-1.25,2.29H123.68z"/>
			</g>
		</g>
		<g>
			<path class="st0" d="M138.84,31.89H33.43V1.09h105.41V31.89z M27.72,29.07c-1.57,0-2.84-1.27-2.84-2.84s1.27-2.84,2.84-2.84
				s2.84,1.27,2.84,2.84C30.57,27.8,29.29,29.07,27.72,29.07 M21.76,10.49c0-1.12,0.9-2.02,2.02-2.02c1.11,0,2.02,0.9,2.02,2.02
				c0,1.11-0.9,2.02-2.02,2.02S21.76,11.6,21.76,10.49 M20.6,23.5c-1.57,0-2.84-1.27-2.84-2.84s1.27-2.84,2.84-2.84
				s2.84,1.27,2.84,2.84C23.44,22.22,22.17,23.5,20.6,23.5 M14.66,13.69c0-1.19,0.96-2.15,2.15-2.15s2.15,0.96,2.15,2.15
				s-0.96,2.15-2.15,2.15C15.63,15.84,14.66,14.88,14.66,13.69 M13.03,23.5c-1.57,0-2.85-1.27-2.85-2.85c0-1.57,1.27-2.85,2.85-2.85
				c1.57,0,2.85,1.28,2.85,2.85C15.88,22.23,14.6,23.5,13.03,23.5 M7.67,10.49c0-1.12,0.9-2.02,2.02-2.02c1.11,0,2.02,0.9,2.02,2.02
				c0,1.11-0.9,2.02-2.02,2.02C8.58,12.51,7.67,11.6,7.67,10.49 M5.91,29.07c-1.57,0-2.85-1.28-2.85-2.85s1.27-2.85,2.85-2.85
				s2.85,1.27,2.85,2.85C8.76,27.8,7.48,29.07,5.91,29.07 M5.97,14.97c1.11,0,2.02,0.9,2.02,2.02s-0.9,2.02-2.02,2.02
				c-1.11,0-2.02-0.9-2.02-2.02S4.86,14.97,5.97,14.97 M9.69,1.51c1.11,0,2.02,0.9,2.02,2.02c0,1.11-0.9,2.02-2.02,2.02
				c-1.11,0-2.02-0.9-2.02-2.02S8.58,1.51,9.69,1.51 M16.82,4.88c1.19,0,2.15,0.96,2.15,2.15s-0.96,2.15-2.15,2.15
				s-2.15-0.96-2.15-2.15S15.63,4.88,16.82,4.88 M23.78,1.51c1.11,0,2.02,0.9,2.02,2.02c0,1.11-0.9,2.02-2.02,2.02
				c-1.11,0-2.02-0.9-2.02-2.02S22.66,1.51,23.78,1.51 M27.8,14.97c1.12,0,2.02,0.9,2.02,2.02s-0.9,2.02-2.02,2.02
				c-1.11,0-2.02-0.9-2.02-2.02S26.69,14.97,27.8,14.97 M18.94,0c0.02,0.12,0.03,0.25,0.03,0.37c0,1.19-0.96,2.15-2.15,2.15
				s-2.15-0.96-2.15-2.15c0-0.13,0.01-0.25,0.04-0.37H0v32.97h8.27c0.24-4.51,3.98-8.1,8.55-8.1c4.58,0,8.31,3.59,8.55,8.1h114.56V0
				H18.94z"/>
		</g>
		<g>
			<path class="st0" d="M0.05,42.98V38.8h3.1v0.71H0.89v0.93h2.1v0.7h-2.1v1.14h2.33v0.7H0.05z"/>
			<path class="st0" d="M5.64,42.98V38.8h0.82l1.71,2.79V38.8h0.78v4.18H8.1l-1.68-2.72v2.72H5.64z"/>
			<path class="st0" d="M14.2,41.44l0.82,0.26c-0.13,0.46-0.33,0.79-0.63,1.02c-0.29,0.22-0.66,0.33-1.11,0.33
				c-0.55,0-1.01-0.19-1.37-0.57s-0.54-0.9-0.54-1.55c0-0.7,0.18-1.24,0.54-1.62c0.36-0.38,0.83-0.58,1.42-0.58
				c0.51,0,0.93,0.15,1.25,0.45c0.19,0.18,0.33,0.43,0.43,0.77l-0.83,0.2c-0.05-0.22-0.15-0.39-0.31-0.51
				c-0.16-0.13-0.35-0.19-0.57-0.19c-0.31,0-0.56,0.11-0.75,0.33s-0.29,0.58-0.29,1.08c0,0.53,0.09,0.9,0.29,1.13
				s0.44,0.34,0.74,0.34c0.22,0,0.42-0.07,0.58-0.21C14.02,41.97,14.13,41.75,14.2,41.44z"/>
			<path class="st0" d="M21.2,42.98h-0.92l-0.36-0.95h-1.67l-0.34,0.95h-0.89l1.63-4.18h0.89L21.2,42.98z M19.65,41.33l-0.58-1.55
				l-0.56,1.55H19.65z"/>
			<path class="st0" d="M23.34,42.98V38.8h1.35c0.51,0,0.85,0.02,1,0.06c0.24,0.06,0.44,0.2,0.6,0.41s0.24,0.48,0.24,0.81
				c0,0.26-0.05,0.47-0.14,0.65s-0.21,0.31-0.35,0.41s-0.29,0.17-0.44,0.2c-0.2,0.04-0.49,0.06-0.88,0.06h-0.55v1.58
				C24.17,42.98,23.34,42.98,23.34,42.98z M24.18,39.51v1.19h0.46c0.33,0,0.55-0.02,0.67-0.07s0.2-0.11,0.26-0.21s0.1-0.2,0.1-0.33
				c0-0.15-0.04-0.28-0.13-0.38c-0.09-0.1-0.2-0.16-0.34-0.19c-0.1-0.02-0.3-0.03-0.61-0.03h-0.41V39.51z"/>
			<path class="st0" d="M28.71,41.62l0.82-0.08c0.05,0.28,0.15,0.48,0.3,0.61s0.36,0.19,0.61,0.19c0.27,0,0.48-0.06,0.61-0.17
				c0.14-0.11,0.21-0.25,0.21-0.4c0-0.1-0.03-0.18-0.09-0.25s-0.16-0.13-0.3-0.18c-0.1-0.03-0.32-0.09-0.68-0.18
				c-0.45-0.11-0.77-0.25-0.95-0.41c-0.26-0.23-0.38-0.51-0.38-0.84c0-0.21,0.06-0.41,0.18-0.6s0.29-0.33,0.52-0.42
				c0.23-0.1,0.5-0.14,0.82-0.14c0.52,0,0.92,0.11,1.18,0.34c0.27,0.23,0.4,0.54,0.42,0.92l-0.84,0.04
				c-0.04-0.21-0.11-0.37-0.23-0.46s-0.3-0.14-0.53-0.14c-0.25,0-0.44,0.05-0.58,0.15c-0.09,0.06-0.13,0.15-0.13,0.26
				c0,0.1,0.04,0.18,0.12,0.25c0.11,0.09,0.36,0.18,0.78,0.28c0.41,0.1,0.71,0.2,0.91,0.3s0.35,0.25,0.46,0.42s0.17,0.4,0.17,0.67
				c0,0.24-0.07,0.46-0.2,0.67c-0.13,0.21-0.32,0.36-0.56,0.47c-0.24,0.1-0.55,0.15-0.91,0.15c-0.53,0-0.93-0.12-1.22-0.37
				C28.93,42.44,28.76,42.09,28.71,41.62z"/>
			<path class="st0" d="M34.5,38.8h0.84v2.26c0,0.36,0.01,0.59,0.03,0.7c0.04,0.17,0.12,0.31,0.26,0.41s0.32,0.16,0.56,0.16
				s0.42-0.05,0.54-0.15s0.19-0.22,0.22-0.36c0.02-0.14,0.04-0.38,0.04-0.71V38.8h0.84v2.19c0,0.5-0.02,0.86-0.07,1.06
				c-0.04,0.21-0.13,0.38-0.25,0.52s-0.29,0.26-0.49,0.34c-0.21,0.08-0.47,0.13-0.8,0.13c-0.4,0-0.7-0.05-0.91-0.14
				s-0.37-0.21-0.49-0.36c-0.12-0.15-0.2-0.3-0.24-0.46c-0.06-0.24-0.08-0.59-0.08-1.06C34.5,41.02,34.5,38.8,34.5,38.8z"/>
			<path class="st0" d="M40.43,42.98v-4.14h0.84v3.44h2.1v0.7H40.43z"/>
			<path class="st0" d="M49.43,42.98h-0.92l-0.36-0.95h-1.67l-0.34,0.95h-0.89l1.63-4.18h0.89L49.43,42.98z M47.88,41.33l-0.58-1.55
				l-0.56,1.55H47.88z"/>
			<path class="st0" d="M52.08,42.98v-3.47h-1.24V38.8h3.32v0.71h-1.24v3.47H52.08z"/>
			<path class="st0" d="M56.37,42.98V38.8h0.84v4.18H56.37z"/>
			<path class="st0" d="M59.54,40.92c0-0.43,0.06-0.78,0.19-1.07c0.1-0.21,0.22-0.4,0.39-0.57c0.16-0.17,0.34-0.29,0.54-0.38
				c0.26-0.11,0.56-0.17,0.9-0.17c0.62,0,1.11,0.19,1.48,0.57s0.55,0.91,0.55,1.59c0,0.67-0.18,1.2-0.55,1.58s-0.86,0.57-1.47,0.57
				c-0.62,0-1.12-0.19-1.48-0.57C59.72,42.1,59.54,41.58,59.54,40.92z M60.4,40.89c0,0.47,0.11,0.83,0.33,1.08
				c0.22,0.24,0.5,0.37,0.83,0.37c0.34,0,0.61-0.12,0.83-0.36s0.32-0.61,0.32-1.09s-0.11-0.84-0.32-1.07s-0.49-0.35-0.84-0.35
				s-0.63,0.12-0.84,0.36S60.4,40.41,60.4,40.89z"/>
			<path class="st0" d="M65.95,42.98V38.8h0.82l1.71,2.79V38.8h0.78v4.18h-0.85l-1.68-2.72v2.72H65.95z"/>
			<path class="st0" d="M76.1,42.98v-3.47h-1.24V38.8h3.32v0.71h-1.24v3.47H76.1z"/>
			<path class="st0" d="M80.41,42.98V38.8h3.1v0.71h-2.25v0.93h2.1v0.7h-2.1v1.14h2.33v0.7H80.41z"/>
			<path class="st0" d="M88.67,41.44l0.82,0.26c-0.13,0.46-0.33,0.79-0.63,1.02c-0.29,0.22-0.66,0.33-1.11,0.33
				c-0.55,0-1.01-0.19-1.37-0.57s-0.54-0.9-0.54-1.55c0-0.7,0.18-1.24,0.54-1.62c0.36-0.38,0.83-0.58,1.42-0.58
				c0.51,0,0.93,0.15,1.25,0.45c0.19,0.18,0.33,0.43,0.43,0.77l-0.83,0.2c-0.05-0.22-0.15-0.39-0.31-0.51
				c-0.16-0.13-0.35-0.19-0.57-0.19c-0.31,0-0.56,0.11-0.75,0.33s-0.29,0.58-0.29,1.08c0,0.53,0.09,0.9,0.29,1.13
				s0.44,0.34,0.74,0.34c0.22,0,0.42-0.07,0.58-0.21C88.49,41.97,88.6,41.75,88.67,41.44z"/>
			<path class="st0" d="M91.9,42.98V38.8h0.84v1.64h1.65V38.8h0.84v4.18h-0.84v-1.83h-1.65v1.83H91.9z"/>
			<path class="st0" d="M97.81,42.98V38.8h0.82l1.71,2.79V38.8h0.78v4.18h-0.85l-1.68-2.72v2.72H97.81z"/>
			<path class="st0" d="M103.53,40.92c0-0.43,0.06-0.78,0.19-1.07c0.1-0.21,0.22-0.4,0.39-0.57c0.16-0.17,0.34-0.29,0.54-0.38
				c0.26-0.11,0.56-0.17,0.9-0.17c0.62,0,1.11,0.19,1.48,0.57s0.55,0.91,0.55,1.59c0,0.67-0.18,1.2-0.55,1.58s-0.86,0.57-1.47,0.57
				c-0.62,0-1.12-0.19-1.48-0.57C103.72,42.1,103.53,41.58,103.53,40.92z M104.4,40.89c0,0.47,0.11,0.83,0.33,1.08
				c0.22,0.24,0.5,0.37,0.83,0.37c0.34,0,0.61-0.12,0.83-0.36s0.32-0.61,0.32-1.09s-0.11-0.84-0.32-1.07s-0.49-0.35-0.84-0.35
				s-0.63,0.12-0.84,0.36S104.4,40.41,104.4,40.89z"/>
			<path class="st0" d="M109.96,42.98v-4.14h0.84v3.44h2.1v0.7H109.96z"/>
			<path class="st0" d="M115.02,40.92c0-0.43,0.06-0.78,0.19-1.07c0.1-0.21,0.22-0.4,0.39-0.57c0.16-0.17,0.34-0.29,0.54-0.38
				c0.26-0.11,0.56-0.17,0.9-0.17c0.62,0,1.11,0.19,1.48,0.57s0.55,0.91,0.55,1.59c0,0.67-0.18,1.2-0.55,1.58s-0.86,0.57-1.47,0.57
				c-0.62,0-1.12-0.19-1.48-0.57C115.21,42.1,115.02,41.58,115.02,40.92z M115.89,40.89c0,0.47,0.11,0.83,0.33,1.08
				c0.22,0.24,0.5,0.37,0.83,0.37c0.34,0,0.61-0.12,0.83-0.36s0.32-0.61,0.32-1.09s-0.11-0.84-0.32-1.07s-0.49-0.35-0.84-0.35
				s-0.63,0.12-0.84,0.36S115.89,40.41,115.89,40.89z"/>
			<path class="st0" d="M123.37,41.44v-0.7h1.82v1.66c-0.18,0.17-0.43,0.32-0.77,0.45s-0.68,0.2-1.02,0.2
				c-0.44,0-0.82-0.09-1.14-0.28s-0.57-0.45-0.73-0.79s-0.25-0.71-0.25-1.11c0-0.43,0.09-0.82,0.27-1.16s0.45-0.6,0.8-0.78
				c0.27-0.14,0.6-0.21,1-0.21c0.52,0,0.92,0.11,1.21,0.33s0.48,0.52,0.56,0.9l-0.84,0.16c-0.06-0.21-0.17-0.37-0.33-0.49
				c-0.16-0.12-0.37-0.18-0.61-0.18c-0.37,0-0.66,0.12-0.88,0.35s-0.33,0.58-0.33,1.04c0,0.5,0.11,0.87,0.33,1.12
				s0.51,0.37,0.87,0.37c0.18,0,0.35-0.03,0.53-0.1s0.33-0.15,0.46-0.25v-0.53C124.32,41.44,123.37,41.44,123.37,41.44z"/>
			<path class="st0" d="M127.63,42.98V38.8h0.84v4.18H127.63z"/>
			<path class="st0" d="M130.97,42.98V38.8h3.1v0.71h-2.25v0.93h2.1v0.7h-2.1v1.14h2.33v0.7H130.97z"/>
			<path class="st0" d="M136.35,41.62l0.82-0.08c0.05,0.28,0.15,0.48,0.3,0.61c0.15,0.13,0.36,0.19,0.61,0.19
				c0.27,0,0.48-0.06,0.61-0.17c0.14-0.11,0.21-0.25,0.21-0.4c0-0.1-0.03-0.18-0.09-0.25s-0.16-0.13-0.3-0.18
				c-0.1-0.03-0.32-0.09-0.68-0.18c-0.45-0.11-0.77-0.25-0.95-0.41c-0.26-0.23-0.38-0.51-0.38-0.84c0-0.21,0.06-0.41,0.18-0.6
				s0.29-0.33,0.52-0.42c0.23-0.1,0.5-0.14,0.82-0.14c0.52,0,0.92,0.11,1.18,0.34c0.27,0.23,0.4,0.54,0.42,0.92l-0.84,0.04
				c-0.04-0.21-0.11-0.37-0.23-0.46s-0.3-0.14-0.53-0.14c-0.25,0-0.44,0.05-0.58,0.15c-0.09,0.06-0.13,0.15-0.13,0.26
				c0,0.1,0.04,0.18,0.12,0.25c0.11,0.09,0.36,0.18,0.78,0.28c0.41,0.1,0.71,0.2,0.91,0.3s0.35,0.25,0.46,0.42s0.17,0.4,0.17,0.67
				c0,0.24-0.07,0.46-0.2,0.67s-0.32,0.36-0.56,0.47c-0.24,0.1-0.55,0.15-0.91,0.15c-0.53,0-0.93-0.12-1.22-0.37
				S136.4,42.09,136.35,41.62z"/>
		</g>
	</g>
</g>
</svg>
